<?xml version="1.0" standalone="no"?>
<!DOCTYPE svg PUBLIC "-//W3C//DTD SVG 20010904//EN"
 "http://www.w3.org/TR/2001/REC-SVG-20010904/DTD/svg10.dtd">
<svg version="1.0" xmlns="http://www.w3.org/2000/svg"
 width="700.000000pt" height="700.000000pt" viewBox="0 0 700.000000 700.000000"
 preserveAspectRatio="xMidYMid meet">
<metadata>
Created by potrace 1.11, written by Peter Selinger 2001-2013
</metadata>
<g transform="translate(0.000000,700.000000) scale(0.100000,-0.100000)"
fill="#000000" stroke="none">
<path d="M1780 6918 c-139 -76 -212 -118 -310 -174 -155 -90 -180 -106 -180
-111 0 -4 50 -81 112 -173 493 -730 1061 -1302 1523 -1533 128 -64 150 -74
240 -102 393 -125 777 -33 1220 293 257 189 550 477 818 804 199 243 513 687
504 711 -4 12 -239 153 -357 216 -25 13 -92 49 -150 81 -58 31 -112 59 -120
62 -9 3 -52 -26 -105 -71 -193 -164 -343 -259 -565 -359 -48 -22 -278 -99
-314 -106 -11 -2 -68 -13 -126 -25 -136 -26 -157 -29 -270 -38 -115 -9 -363
-8 -445 2 -33 3 -75 8 -94 10 -79 9 -252 50 -364 87 -297 96 -562 246 -803
455 -34 29 -63 53 -65 52 -2 -1 -69 -37 -149 -81z"/>
<path d="M353 5698 c-4 -7 -13 -22 -19 -33 -6 -11 -47 -81 -91 -155 -43 -74
-105 -184 -138 -245 -32 -60 -69 -129 -82 -152 l-24 -42 38 -43 c21 -24 41
-45 44 -48 19 -16 164 -221 208 -293 64 -107 148 -284 191 -402 18 -49 36 -99
40 -110 8 -18 36 -130 46 -180 39 -197 48 -286 48 -465 1 -396 -69 -718 -224
-1035 -92 -188 -156 -282 -362 -529 l-28 -33 48 -89 c27 -49 70 -128 95 -176
26 -49 77 -139 114 -200 36 -62 72 -125 80 -140 8 -15 19 -30 24 -34 28 -17
643 431 874 637 596 532 908 980 981 1407 16 90 15 260 0 337 -4 17 -9 42 -12
57 -3 15 -6 31 -6 35 0 5 -14 46 -30 93 -82 233 -224 463 -447 725 -123 144
-378 397 -520 515 -30 25 -59 50 -65 55 -116 108 -732 555 -764 555 -6 0 -14
-6 -19 -12z"/>
<path d="M6603 5699 c-6 -6 -20 -16 -32 -23 -88 -48 -622 -439 -651 -475 -3
-4 -18 -17 -34 -29 -231 -177 -578 -533 -766 -786 -105 -141 -184 -277 -263
-456 -21 -47 -63 -192 -73 -255 -11 -63 -12 -274 -1 -340 63 -390 387 -868
908 -1337 289 -261 922 -730 948 -702 8 8 201 333 201 338 0 1 36 69 80 151
l80 148 -34 41 c-19 23 -47 55 -62 71 -44 50 -157 205 -207 285 -146 238 -250
541 -292 860 -19 142 -24 381 -12 540 8 89 47 308 67 375 99 323 212 550 393
789 33 45 63 83 66 86 3 3 23 23 43 45 l37 40 -33 65 c-18 36 -46 90 -63 120
-17 30 -47 87 -68 125 -21 39 -49 87 -62 107 -13 21 -23 42 -23 48 0 5 -4 10
-10 10 -5 0 -10 4 -10 9 0 19 -87 156 -101 159 -8 1 -20 -3 -26 -9z"/>
<path d="M3305 2210 c-124 -26 -210 -56 -342 -120 -299 -146 -586 -377 -943
-759 -86 -93 -272 -318 -381 -461 -167 -222 -354 -500 -342 -510 18 -16 330
-194 479 -274 l161 -86 44 41 c166 154 444 325 679 417 78 31 193 70 226 77
10 2 44 10 74 18 46 12 96 22 211 42 170 30 541 23 746 -14 147 -27 227 -48
358 -92 263 -90 472 -213 721 -424 l76 -65 71 39 c40 22 104 56 142 76 39 20
152 84 252 142 l183 106 -22 36 c-72 118 -380 549 -431 604 -7 6 -39 46 -71
87 -33 41 -62 77 -65 80 -4 3 -37 41 -76 85 -110 127 -359 375 -471 470 -408
346 -750 504 -1084 503 -67 -1 -148 -8 -195 -18z"/>
</g>
</svg>
