<?xml version="1.0" encoding="UTF-8" standalone="no"?>
<svg
   xmlns:dc="http://purl.org/dc/elements/1.1/"
   xmlns:cc="http://creativecommons.org/ns#"
   xmlns:rdf="http://www.w3.org/1999/02/22-rdf-syntax-ns#"
   xmlns:svg="http://www.w3.org/2000/svg"
   xmlns="http://www.w3.org/2000/svg"
   width="970.87244mm"
   height="869.4425mm"
   viewBox="0 0 970.87246 869.4425"
   version="1.1"
   id="svg8">
  <defs
     id="defs2" />
  <metadata
     id="metadata5">
    <rdf:RDF>
      <cc:Work
         rdf:about="">
        <dc:format>image/svg+xml</dc:format>
        <dc:type
           rdf:resource="http://purl.org/dc/dcmitype/StillImage" />
        <dc:title></dc:title>
      </cc:Work>
    </rdf:RDF>
  </metadata>
  <g
     transform="translate(-270.96756,598.45973)"
     style="display:none"
     id="layer12">
    <rect
       y="-936.87378"
       x="-91.299278"
       height="1490.7225"
       width="1706.2488"
       id="rect2578"
       style="opacity:1;fill:#000000;fill-opacity:1;stroke:none;stroke-width:16.86868095;stroke-linecap:round;stroke-linejoin:miter;stroke-miterlimit:4;stroke-dasharray:none;stroke-opacity:1;paint-order:normal" />
  </g>
  <g
     style="display:none"
     transform="translate(-270.96755,598.49707)"
     id="layer6">
    <g
       style="display:none"
       id="layer5">
      <text
         transform="scale(1.0047257,0.99529653)"
         id="text1729"
         y="218.81447"
         x="312.92538"
         style="font-style:normal;font-weight:normal;font-size:236.3611145px;line-height:1.25;font-family:sans-serif;letter-spacing:0px;word-spacing:0px;fill:#000000;fill-opacity:1;stroke:none;stroke-width:5.90814161"
         xml:space="preserve"><tspan
           style="font-style:normal;font-variant:normal;font-weight:normal;font-stretch:normal;font-family:'Bebas Neue';-inkscape-font-specification:'Bebas Neue';stroke-width:5.90814161"
           y="218.81447"
           x="312.92538"
           id="tspan1727">LAXBEAM</tspan></text>
    </g>
    <g
       style="display:none"
       id="layer2">
      <text
         id="text1621"
         y="228.2294"
         x="275.69101"
         style="font-style:normal;font-weight:normal;font-size:258.82574463px;line-height:1.25;font-family:sans-serif;letter-spacing:0px;word-spacing:0px;fill:#000000;fill-opacity:1;stroke:none;stroke-width:6.470644"
         xml:space="preserve"><tspan
           style="font-style:normal;font-variant:normal;font-weight:normal;font-stretch:normal;font-family:'Open Sans';-inkscape-font-specification:'Open Sans';stroke-width:6.470644"
           y="228.2294"
           x="275.69101"
           id="tspan1619">LAX</tspan></text>
      <rect
         y="208.76678"
         x="748.97058"
         height="19.461424"
         width="475.328"
         id="rect1635"
         style="opacity:1;fill:#000000;fill-opacity:1;stroke:none;stroke-width:18.55693436;stroke-linecap:round;stroke-linejoin:miter;stroke-miterlimit:4;stroke-dasharray:none;stroke-opacity:1;paint-order:normal" />
      <text
         id="text1641"
         y="176.31981"
         x="756.71411"
         style="font-style:normal;font-weight:normal;font-size:188.38803101px;line-height:1.25;font-family:sans-serif;letter-spacing:0px;word-spacing:0px;fill:#da0000;fill-opacity:1;stroke:none;stroke-width:4.70970058"
         xml:space="preserve"
         transform="scale(0.96611647,1.0350719)"><tspan
           style="font-style:normal;font-variant:normal;font-weight:600;font-stretch:normal;font-family:'Open Sans';-inkscape-font-specification:'Open Sans Semi-Bold';fill:#000000;fill-opacity:1;stroke-width:4.70970058"
           y="176.31981"
           x="756.71411"
           id="tspan1639">BEAM</tspan></text>
    </g>
    <g
       style="display:none"
       id="layer3">
      <g
         id="text1669"
         style="font-style:normal;font-weight:normal;font-size:165.23558044px;line-height:1.25;font-family:sans-serif;letter-spacing:0px;word-spacing:0px;display:inline;fill:#000000;fill-opacity:1;stroke:none;stroke-width:4.13088989"
         transform="scale(0.82469233,1.2125734)"
         aria-label="LAXBEAM">
        <path
           id="path1708"
           style="font-style:normal;font-variant:normal;font-weight:bold;font-stretch:normal;font-family:'Swis721 BlkEx BT';-inkscape-font-specification:'Swis721 BlkEx BT Bold';stroke-width:4.13088989"
           d="m 375.58012,170.93849 19.9076,-119.327842 h 46.23047 l -14.44276,86.571182 h 72.85533 l -5.46484,32.75666 z" />
        <path
           id="path1710"
           style="font-style:normal;font-variant:normal;font-weight:bold;font-stretch:normal;font-family:'Swis721 BlkEx BT';-inkscape-font-specification:'Swis721 BlkEx BT Bold';stroke-width:4.13088989"
           d="m 560.25822,129.79096 h 29.61009 L 582.5063,87.836613 Z m -71.57118,41.14753 71.6244,-119.327842 h 58.6554 l 28.3399,119.327842 h -50.10317 l -2.00166,-11.69881 h -50.74863 l -6.22784,11.69881 z" />
        <path
           id="path1712"
           style="font-style:normal;font-variant:normal;font-weight:bold;font-stretch:normal;font-family:'Swis721 BlkEx BT';-inkscape-font-specification:'Swis721 BlkEx BT Bold';stroke-width:4.13088989"
           d="m 634.74325,170.93849 63.66801,-62.93152 -36.17635,-56.396322 h 55.83155 l 12.07108,25.81806 21.97649,-25.81806 h 55.1861 l -55.63912,56.396322 41.70195,62.93152 h -57.84859 l -15.95621,-32.03053 -27.12768,32.03053 z" />
        <path
           id="path1714"
           style="font-style:normal;font-variant:normal;font-weight:bold;font-stretch:normal;font-family:'Swis721 BlkEx BT';-inkscape-font-specification:'Swis721 BlkEx BT Bold';stroke-width:4.13088989"
           d="m 844.52515,141.16704 h 32.75666 q 11.2954,0 14.95328,-2.09772 3.73863,-2.09771 4.65394,-7.58405 0.9422,-5.6477 -2.1771,-7.74542 -3.10592,-2.1784 -14.15928,-2.1784 h -32.75666 z m 10.28363,-61.640615 -2.81317,16.86242 h 31.06235 q 10.08518,0 13.36646,-1.774991 3.29484,-1.855673 4.08897,-6.615878 0.80761,-4.840886 -1.63941,-6.615878 -2.43358,-1.855673 -13.00285,-1.855673 z m 54.43763,-27.915777 q 25.01125,0 34.18088,6.938604 9.26384,6.857922 6.59872,22.832846 -1.46724,8.794277 -6.60504,15.410154 -5.13773,6.615878 -13.65033,10.730628 9.77538,3.30794 13.76782,10.81132 4.00597,7.42269 2.14847,18.55673 -2.84007,17.02378 -15.40086,25.57601 -12.54739,8.47155 -34.89615,8.47155 H 793.3279 L 813.2355,51.610648 Z" />
        <path
           id="path1716"
           style="font-style:normal;font-variant:normal;font-weight:bold;font-stretch:normal;font-family:'Swis721 BlkEx BT';-inkscape-font-specification:'Swis721 BlkEx BT Bold';stroke-width:4.13088989"
           d="m 942.52984,170.93849 19.9076,-119.327842 h 126.42496 l -4.8862,29.287362 h -80.1974 l -2.3687,14.199932 h 64.9486 l -4.913,29.448728 h -64.94882 l -2.61128,15.65219 h 84.1506 l -5.1287,30.73963 z" />
        <path
           id="path1718"
           style="font-style:normal;font-variant:normal;font-weight:bold;font-stretch:normal;font-family:'Swis721 BlkEx BT';-inkscape-font-specification:'Swis721 BlkEx BT Bold';stroke-width:4.13088989"
           d="m 1137.0022,129.79096 h 29.6101 l -7.3625,-41.954347 z m -71.5718,41.14753 71.625,-119.327842 h 58.6554 l 28.3393,119.327842 h -50.1032 l -2.0011,-11.69881 h -50.7486 l -6.2284,11.69881 z" />
        <path
           id="path1720"
           style="font-style:normal;font-variant:normal;font-weight:bold;font-stretch:normal;font-family:'Swis721 BlkEx BT';-inkscape-font-specification:'Swis721 BlkEx BT Bold';stroke-width:4.13088989"
           d="m 1218.2429,170.93849 19.9082,-119.327842 h 68.5792 l 8.0422,72.693972 33.9122,-72.693972 h 67.611 l -19.9082,119.327842 h -42.8418 l 15.5471,-93.187056 -43.947,93.187056 h -36.0646 l -12.53,-93.187056 -15.5471,93.187056 z" />
      </g>
    </g>
    <g
       style="display:none"
       id="layer4">
      <text
         id="text1704"
         y="170.93849"
         x="372.46353"
         style="font-style:normal;font-weight:normal;font-size:165.23558044px;line-height:1.25;font-family:sans-serif;letter-spacing:0px;word-spacing:0px;display:inline;fill:#000000;fill-opacity:1;stroke:none;stroke-width:4.13088989"
         xml:space="preserve"
         transform="scale(0.82469233,1.2125734)"><tspan
           style="font-style:normal;font-variant:normal;font-weight:bold;font-stretch:normal;font-family:'Swis721 BlkEx BT';-inkscape-font-specification:'Swis721 BlkEx BT Bold';stroke-width:4.13088989"
           y="170.93849"
           x="372.46353"
           id="tspan1702">LAXBEAM</tspan></text>
    </g>
  </g>
  <g
     transform="translate(-270.96756,598.45973)"
     style="display:none"
     id="layer13">
    <g
       transform="translate(0,0.0373356)"
       style="display:none"
       id="layer7">
      <rect
         y="-1.7053026e-013"
         x="-1.9960086e-013"
         height="270.93335"
         width="1241.8387"
         id="rect1752"
         style="opacity:1;fill:#ff0000;fill-opacity:0.59534882;stroke:none;stroke-width:19.40884209;stroke-linecap:round;stroke-linejoin:miter;stroke-miterlimit:4;stroke-dasharray:none;stroke-opacity:1;paint-order:normal" />
      <rect
         y="-0.037335597"
         x="322.79169"
         height="52.916668"
         width="66.410423"
         id="rect1756"
         style="opacity:1;fill:#ff0000;fill-opacity:0.59534882;stroke:none;stroke-width:13.32951641;stroke-linecap:round;stroke-linejoin:miter;stroke-miterlimit:4;stroke-dasharray:none;stroke-opacity:1;paint-order:normal" />
      <rect
         style="opacity:1;fill:#ff0000;fill-opacity:0.59534882;stroke:none;stroke-width:11.89850807;stroke-linecap:round;stroke-linejoin:miter;stroke-miterlimit:4;stroke-dasharray:none;stroke-opacity:1;paint-order:normal"
         id="rect1758"
         width="52.916668"
         height="52.916668"
         x="322.79169"
         y="217.84711" />
      <rect
         y="110.83238"
         x="270.96823"
         height="52.916668"
         width="52.916668"
         id="rect1760"
         style="opacity:1;fill:#ff0000;fill-opacity:0.59534882;stroke:none;stroke-width:11.89850807;stroke-linecap:round;stroke-linejoin:miter;stroke-miterlimit:4;stroke-dasharray:none;stroke-opacity:1;paint-order:normal" />
      <rect
         style="opacity:1;fill:#ff0000;fill-opacity:0.59534882;stroke:none;stroke-width:11.89850807;stroke-linecap:round;stroke-linejoin:miter;stroke-miterlimit:4;stroke-dasharray:none;stroke-opacity:1;paint-order:normal"
         id="rect1762"
         width="52.916668"
         height="52.916668"
         x="993.2182"
         y="110.83238" />
      <rect
         y="110.83238"
         x="1188.9233"
         height="52.916668"
         width="52.916668"
         id="rect1774"
         style="opacity:1;fill:#ff0000;fill-opacity:0.59534882;stroke:none;stroke-width:11.89850807;stroke-linecap:round;stroke-linejoin:miter;stroke-miterlimit:4;stroke-dasharray:none;stroke-opacity:1;paint-order:normal" />
    </g>
    <g
       transform="translate(1.1351013e-5,0.03734695)"
       id="layer1">
      <g
         id="g2798">
        <g
           style="display:inline"
           id="g970"
           transform="translate(-135.46666,1.5709961e-5)">
          <path
             d="M 226.5153,45.635132 A 135.45219,135.45219 0 0 1 91.119259,181.08731 135.45219,135.45219 0 0 1 -44.389037,45.747429 135.45219,135.45219 0 0 1 90.894665,-89.816958 135.45219,135.45219 0 0 1 226.51512,45.410538"
             id="path1090"
             style="display:inline;opacity:1;fill:#ffb300;fill-opacity:1;stroke:none;stroke-width:1.00277007;stroke-linecap:round;stroke-linejoin:round;stroke-miterlimit:4;stroke-dasharray:none;stroke-opacity:1;paint-order:normal"
             transform="translate(179.87021,89.831513)" />
        </g>
        <g
           style="display:inline;opacity:1"
           id="layer14">
          <g
             style="display:none"
             transform="translate(211.28716,215.83626)"
             id="layer7-6">
            <rect
               y="-89.831528"
               x="-44.403549"
               height="270.93332"
               width="270.93332"
               id="rect988-8"
               style="display:inline;opacity:1;fill:#ffbe00;fill-opacity:1;stroke:none;stroke-width:5.5051856;stroke-linecap:round;stroke-linejoin:round;stroke-miterlimit:4;stroke-dasharray:none;stroke-opacity:1;paint-order:normal" />
          </g>
          <g
             transform="translate(166.88361,126.00473)"
             style="display:none"
             id="layer3-8">
            <path
               id="path1536"
               transform="scale(0.26458333)"
               d="M 512,0 V 0.0859375 1023.9355 l 0.004,0.064 H 1024 V 0 Z"
               style="fill:#ffa300;fill-opacity:1;stroke:none;stroke-width:0.99999994px;stroke-linecap:butt;stroke-linejoin:miter;stroke-opacity:1" />
          </g>
          <g
             style="fill:#f39600;fill-opacity:1"
             transform="translate(2.3862151e-4,9.9045892e-5)"
             id="layer2-8">
            <path
               transform="scale(0.26458333)"
               id="path1531"
               d="M 512,0.0859375 V 1023.9355 a 511.9453,511.9453 0 0 0 0.21289,0.01 A 511.9453,511.9453 0 0 0 1023.9453,512 v -0.84961 A 511.9453,511.9453 0 0 0 512,0.0859375 Z"
               style="display:inline;opacity:1;fill:#f39600;fill-opacity:1;stroke:none;stroke-width:3.7899971;stroke-linecap:round;stroke-linejoin:round;stroke-miterlimit:4;stroke-dasharray:none;stroke-opacity:1;paint-order:normal" />
          </g>
          <g
             style="display:none"
             transform="translate(31.41695,126.00475)"
             id="g1516">
            <path
               id="path1514"
               transform="matrix(0.26458333,0,0,0.26458333,135.46666,-1.5709961e-5)"
               d="M 400.4375,75.507812 A 452.60684,452.60684 0 0 0 183.58008,203.12109 l 16,16 A 452.60683,452.60683 0 0 1 400.4375,96.460938 Z m 223.14844,0.181641 V 261.17188 a 329.77546,329.77546 0 0 1 16,6.625 V 91.689453 A 452.60683,452.60683 0 0 1 840.25977,203.30664 l 0.37695,-0.37695 A 452.60684,452.60684 0 0 0 623.58594,75.689453 Z M 147.63477,246.12109 A 452.60684,452.60684 0 0 0 68.607422,423.19531 l 18.46875,4.94922 A 452.60683,452.60683 0 0 1 163.63477,262.12109 Z m 728.73632,0.0195 -112.53125,112.5254 a 329.77546,329.77546 0 0 1 57.99024,100.32226 l 8.6289,-2.3125 A 329.77545,329.77545 0 0 0 779.83984,374.66602 L 889.25,265.26172 a 452.60682,452.60682 0 0 0 -12.87891,-19.1211 z M 437.98438,438.2793 c -89.4532,1.9166 -151.08292,29.5208 -206.4961,93.84375 2.11012,-0.74666 4.22234,-1.47816 6.33594,-2.20117 0.8393,-0.28726 1.67974,-0.568 2.51953,-0.85157 1.21824,-0.41106 2.43705,-0.81949 3.65625,-1.22265 1.10772,-0.36664 2.21578,-0.7297 3.32422,-1.08985 0.89039,-0.28899 1.78107,-0.57461 2.67187,-0.85937 1.32339,-0.42353 2.6465,-0.84559 3.97071,-1.25977 0.40362,-0.12609 0.80724,-0.24978 1.21093,-0.375 5.37597,-1.66959 10.75704,-3.26082 16.14063,-4.77344 1.90164,-0.53429 3.80319,-1.05791 5.70508,-1.57226 46.69849,-41.63548 99.81504,-60.893 170.48633,-63.43945 z m 148.03124,0 -40.14453,68.26953 c 2.10006,-0.44638 4.21449,-0.86269 6.33594,-1.26563 0.44399,-0.0841 0.88908,-0.16582 1.33399,-0.24804 2.0554,-0.38085 4.1188,-0.74526 6.19336,-1.08594 0.0235,-0.004 0.0468,-0.008 0.0703,-0.0117 4.68173,-0.76774 9.41203,-1.42971 14.18554,-1.99609 v -0.002 l 28.02539,-47.66015 c 76.1023,1.63054 132.06243,21.87142 181.19336,67.47851 -1.58726,-1.70329 -3.18165,-3.37362 -4.78125,-5.01953 -0.0963,-0.0991 -0.19269,-0.19993 -0.28906,-0.29883 -1.52688,-1.56705 -3.06059,-3.10385 -4.59961,-4.61914 -0.17623,-0.1735 -0.35095,-0.35061 -0.52734,-0.52343 -1.48214,-1.45224 -2.97061,-2.8765 -4.46484,-4.28126 -0.24356,-0.22895 -0.48658,-0.4598 -0.73047,-0.6875 -1.42029,-1.3261 -2.84734,-2.62643 -4.2793,-3.91015 -0.34692,-0.31098 -0.69339,-0.62314 -1.04102,-0.93164 -1.36383,-1.21043 -2.73428,-2.39977 -4.10937,-3.57227 -0.39481,-0.33661 -0.78978,-0.67236 -1.18555,-1.00586 -1.39857,-1.17864 -2.80395,-2.33855 -4.21484,-3.47851 -0.33232,-0.26847 -0.66502,-0.53445 -0.99805,-0.80078 -22.65902,-18.12399 -46.95282,-31.31801 -74.07812,-40.16993 -2.10377,-0.68653 -4.22493,-1.34578 -6.36328,-1.98046 -1.57543,-0.46761 -3.1709,-0.90794 -4.76563,-1.34766 -0.92347,-0.25452 -1.84729,-0.50868 -2.77734,-0.75391 -1.28136,-0.33802 -2.57118,-0.66388 -3.86524,-0.98437 -1.01142,-0.25038 -2.02562,-0.4966 -3.04492,-0.73633 -1.20176,-0.28278 -2.41016,-0.55811 -3.62305,-0.82617 -1.10993,-0.24519 -2.22436,-0.48386 -3.34375,-0.7168 -1.20562,-0.25101 -2.41606,-0.49554 -3.63281,-0.73242 -1.13898,-0.22163 -2.28472,-0.43521 -3.43359,-0.64453 -1.2115,-0.22085 -2.42578,-0.43924 -3.64844,-0.64649 -1.1578,-0.19614 -2.32424,-0.38238 -3.49219,-0.5664 -1.24777,-0.19671 -2.49634,-0.39128 -3.75586,-0.57422 -1.21742,-0.17674 -2.44527,-0.33994 -3.67383,-0.50391 -1.17877,-0.1574 -2.35576,-0.31717 -3.54492,-0.46289 -1.39848,-0.17127 -2.81156,-0.32721 -4.22461,-0.48242 -1.08308,-0.11903 -2.16215,-0.24191 -3.2539,-0.35156 -1.40355,-0.14089 -2.82413,-0.26515 -4.24219,-0.39063 -1.15847,-0.10256 -2.31023,-0.21234 -3.47852,-0.30469 -1.35046,-0.10668 -2.72024,-0.19398 -4.08398,-0.2871 -1.24723,-0.0852 -2.48566,-0.17804 -3.74414,-0.25196 -1.77286,-0.10409 -3.56779,-0.18569 -5.36328,-0.26758 -0.79763,-0.0364 -1.58457,-0.0832 -2.38672,-0.11523 -2.6924,-0.10746 -5.4082,-0.19316 -8.15235,-0.25195 z m 377.15235,40.62109 -126.64844,33.9375 a 329.77546,329.77546 0 0 1 5.26758,57.67773 v 0.54688 a 329.77546,329.77546 0 0 1 -5.40039,57.75781 l 17.62695,4.72266 a 329.77545,329.77545 0 0 0 3.77344,-46.48047 v -0.54688 a 329.77545,329.77545 0 0 0 -5.26758,-57.67773 l 111.50195,-29.87891 a 452.60682,452.60682 0 0 0 -0.85351,-20.05859 z m -902.033204,0.0762 a 452.60684,452.60684 0 0 0 -1.728516,35.14258 452.60684,452.60684 0 0 0 23.798828,142.68555 l 10.50586,-2.81446 A 452.60683,452.60683 0 0 1 75.40625,530.11914 452.60683,452.60683 0 0 1 77.134766,494.97656 l 108.933594,29.18946 a 329.77546,329.77546 0 0 1 1.625,-11.27735 z M 628.54297,499.625 c -4.60761,5.49992 -7.38952,12.58269 -7.40235,20.31836 v 0.0527 c 0,3.02626 0.43166,5.9502 1.22266,8.72266 l 0.008,-0.004 c 2.42285,8.48547 8.27766,15.52201 15.97852,19.49805 0.51339,0.26507 1.03512,0.51652 1.56445,0.75391 -1.77634,-3.96118 -2.77344,-8.34853 -2.77344,-12.97071 v -0.0527 c 0.0128,-7.73567 2.79473,-14.81843 7.40235,-20.31836 z m -284.90039,4.4707 c -2.71676,4.68385 -4.2769,10.12122 -4.27149,15.92578 9.4e-4,1.12775 0.0621,2.24063 0.17774,3.3379 8.3e-4,0.008 0.003,0.0155 0.004,0.0234 0.0679,0.64007 0.16022,1.27232 0.26563,1.90039 0.0266,0.15873 0.055,0.31669 0.084,0.47461 0.0954,0.51946 0.20389,1.03468 0.32422,1.54492 0.0297,0.12613 0.0567,0.25337 0.0879,0.37891 0.15808,0.63509 0.33164,1.26354 0.52735,1.88281 0.0124,0.0394 0.0265,0.0779 0.0391,0.11719 0.18385,0.5739 0.38643,1.14009 0.60156,1.69922 0.0506,0.13164 0.10394,0.26178 0.15625,0.39258 0.20353,0.5085 0.41974,1.01076 0.64844,1.50586 0.0392,0.0848 0.0754,0.17143 0.11523,0.25586 0.28013,0.59252 0.57556,1.17636 0.89063,1.74804 0.0168,0.0305 0.0358,0.0595 0.0527,0.0899 0.29292,0.52737 0.60226,1.04436 0.92383,1.55273 0.0627,0.0993 0.12565,0.19836 0.18945,0.29688 0.32518,0.50166 0.66146,0.99496 1.01368,1.47656 0.0204,0.0279 0.0401,0.0562 0.0605,0.084 0.80253,1.08989 1.67315,2.12619 2.60547,3.10352 0.005,0.005 0.0105,0.0103 0.0156,0.0156 1.40521,1.47102 2.94949,2.80812 4.61328,3.98828 0.0118,0.008 0.0233,0.017 0.0351,0.0254 1.66881,1.18031 3.4568,2.20357 5.3418,3.04882 -1.77247,-3.95307 -2.76946,-8.33069 -2.77344,-12.94336 -0.005,-5.80456 1.55476,-11.24192 4.27149,-15.92578 z m 69.04101,57.72461 c 0.35844,1.34825 0.74845,2.6951 1.16407,4.03907 0.14465,0.46776 0.30946,0.93335 0.46093,1.40039 0.28596,0.88161 0.56888,1.76413 0.87891,2.64257 0.19422,0.55034 0.40776,1.09763 0.61133,1.64649 0.29066,0.78363 0.57916,1.56749 0.88867,2.34765 0.2239,0.56445 0.46556,1.12511 0.69922,1.6875 0.32503,0.78221 0.64849,1.56403 0.99219,2.3418 0.23942,0.54188 0.49185,1.07964 0.74023,1.61914 0.35215,0.76479 0.70622,1.52949 1.07617,2.28906 0.27328,0.56116 0.55696,1.11967 0.83985,1.67774 0.38358,0.75658 0.77084,1.51127 1.17187,2.26172 0.28151,0.52688 0.57131,1.05058 0.86133,1.57422 0.4246,0.76649 0.85621,1.52999 1.29883,2.28906 0.29496,0.50594 0.59557,1.00928 0.89843,1.51172 0.46349,0.76874 0.9362,1.53293 1.41797,2.29297 0.31603,0.49864 0.63519,0.99555 0.95899,1.49023 0.47662,0.72802 0.96378,1.45094 1.45703,2.16992 0.34228,0.49899 0.68497,0.99778 1.03516,1.49219 0.53325,0.75275 1.0795,1.49666 1.63085,2.23828 0.32967,0.4435 0.65613,0.8888 0.99219,1.32813 0.56901,0.74376 1.15315,1.47767 1.74024,2.20898 0.35201,0.43854 0.70211,0.87864 1.06054,1.3125 0.6188,0.74894 1.25298,1.48626 1.89063,2.2207 0.33282,0.38338 0.66016,0.77112 0.99805,1.15039 0.68432,0.76808 1.38697,1.52089 2.09179,2.27149 0.32295,0.34394 0.63765,0.69501 0.96485,1.03516 0.74567,0.77514 1.5119,1.53046 2.27929,2.28515 0.30434,0.29931 0.6005,0.60636 0.90821,0.90235 1.06937,1.0286 2.15633,2.03859 3.26562,3.02539 1.1489,1.02203 2.31932,2.02174 3.50977,2.99609 -10.78616,-13.08864 -18.68087,-28.31738 -22.78321,-43.74805 32.08967,14.13842 63.52425,22.32617 98.60938,22.32617 25.39277,0 49.61078,-4.30756 73.2207,-12.0371 1.15511,-2.05019 2.24214,-4.1274 3.26563,-6.22461 0.0303,-0.0622 0.0635,-0.12335 0.0937,-0.18555 0.003,-0.007 0.007,-0.013 0.01,-0.0195 0.36388,-0.74933 0.70809,-1.50542 1.05469,-2.25977 0.20136,-0.43875 0.40612,-0.87608 0.60156,-1.3164 0.29281,-0.65884 0.57408,-1.32035 0.85352,-1.98243 0.23777,-0.56414 0.47321,-1.12903 0.70117,-1.69531 0.24259,-0.60175 0.47759,-1.20467 0.70898,-1.80859 0.23968,-0.62645 0.47171,-1.2543 0.69922,-1.88281 0.20024,-0.55241 0.40107,-1.10439 0.5918,-1.65821 0.27265,-0.79268 0.53018,-1.58772 0.7832,-2.38281 0.12778,-0.40114 0.26206,-0.80147 0.38477,-1.20313 0.37302,-1.22192 0.72892,-2.44457 1.05469,-3.66992 -32.0897,14.13842 -64.93831,22.32617 -100.02344,22.32617 -35.08513,0 -66.51968,-8.18775 -98.60938,-22.32617 z M 821.875,682.7168 a 329.77546,329.77546 0 0 1 -57.59961,100.74414 l 16,16 A 329.77545,329.77545 0 0 0 837.875,698.7168 l 76.53906,20.50781 a 452.60682,452.60682 0 0 0 5.32617,-10.28516 z m -619.82227,0.0273 -97.90625,26.23438 a 452.60684,452.60684 0 0 0 97.06055,133.02734 l 0.0801,-0.0801 a 452.60683,452.60683 0 0 1 -81.14065,-116.9472 l 89.2461,-23.91407 a 329.77546,329.77546 0 0 1 -7.33985,-18.32031 z m 522.54102,139.97461 a 329.77546,329.77546 0 0 1 -100.43945,58.1543 l 17.70312,66.06836 a 452.60684,452.60684 0 0 0 10.69141,-3.81055 L 640.1543,896.87305 a 329.77545,329.77545 0 0 0 100.43945,-58.1543 z m -425.39063,0.22461 v 0.002 l -55.02148,55.02149 a 452.60682,452.60682 0 0 0 19.23242,12.76758 l 51.78906,-51.78907 v -0.002 a 329.77545,329.77545 0 0 0 82.44532,50.22266 l 2.25195,-8.40625 A 329.77546,329.77546 0 0 1 299.20312,822.94336 Z m 154.56446,72.42578 -17.1875,64.15234 a 452.60682,452.60682 0 0 0 19.63086,2.44727 l 13.55664,-50.59961 a 329.77545,329.77545 0 0 0 58.38086,5.4707 329.77545,329.77545 0 0 0 46.83594,-3.82812 l -4.68165,-17.47461 a 329.77546,329.77546 0 0 1 -58.15429,5.30273 329.77546,329.77546 0 0 1 -58.38086,-5.4707 z"
               style="display:inline;opacity:1;fill:#000000;fill-opacity:1;stroke:none;stroke-width:0;stroke-linecap:round;stroke-linejoin:round;stroke-miterlimit:4;stroke-dasharray:none;stroke-opacity:1;paint-order:normal" />
          </g>
          <g
             transform="translate(166.88361,126.00473)"
             style="display:none"
             id="layer1-4" />
        </g>
        <g
           id="g962"
           transform="translate(-135.46666,1.5709961e-5)"
           style="display:inline">
          <path
             id="path968"
             transform="matrix(0.26458333,0,0,0.26458333,135.46666,-1.5709961e-5)"
             d="M 400.4375,75.507812 A 452.60685,452.60685 0 0 0 183.58008,203.12109 L 299.6582,319.19922 a 329.77546,329.77546 0 0 1 100.7793,-58.12695 z m 223.14844,0.181641 V 261.17188 a 329.77546,329.77546 0 0 1 100.99804,57.81054 L 840.63672,202.92969 A 452.60685,452.60685 0 0 0 623.58594,75.689453 Z M 147.63477,246.12109 A 452.60685,452.60685 0 0 0 68.607422,423.19531 l 133.685548,35.82031 a 329.77546,329.77546 0 0 1 57.67187,-100.57031 z m 728.73632,0.0195 -112.53125,112.5254 a 329.77546,329.77546 0 0 1 57.99024,100.32226 L 955.01367,423.30273 A 452.60685,452.60685 0 0 0 876.37109,246.14062 Z M 359.68555,401.14648 c -0.90257,0.002 -1.80693,0.0157 -2.71485,0.041 -58.10683,1.62266 -102.74955,50.62566 -114.5039,100.39648 28.76788,-13.64641 57.1952,-23.1213 87.625,-27.29882 -5.71591,6.58525 -9.17868,15.17789 -9.16992,24.58203 0.0171,20.69397 16.80209,37.453 37.49609,37.44922 20.69401,-0.009 37.46484,-16.78643 37.46484,-37.48047 v -0.0625 c -0.0169,-10.19065 -4.10581,-19.42037 -10.71679,-26.16602 31.53098,2.34308 61.84492,10.24347 91.73437,22.42774 -14.28758,-48.27075 -60.3533,-94.01922 -117.21484,-93.88868 z m 304.6289,0 c -56.86154,-0.13054 -102.92726,45.61793 -117.21484,93.88868 29.88884,-12.18402 60.20214,-20.08448 91.73242,-22.42774 -6.61085,6.74563 -10.69798,15.97549 -10.71484,26.16602 v 0.0625 c 0,20.69404 16.77083,37.47192 37.46484,37.48047 20.694,0.004 37.47897,-16.75525 37.49609,-37.44922 0.009,-9.40414 -3.45401,-17.99678 -9.16992,-24.58203 30.4298,4.17752 58.85712,13.65241 87.625,27.29882 -11.75435,-49.77082 -56.39707,-98.77382 -114.5039,-100.39648 -0.90792,-0.0254 -1.81228,-0.0389 -2.71485,-0.041 z m 298.85352,77.75391 -126.64844,33.9375 a 329.77546,329.77546 0 0 1 5.26758,57.67773 v 0.54688 a 329.77546,329.77546 0 0 1 -5.40039,57.75781 l 104.60547,28.03125 a 452.60685,452.60685 0 0 0 23.62695,-143.10742 v -0.75 a 452.60685,452.60685 0 0 0 -1.45117,-34.09375 z m -902.033204,0.0762 A 452.60685,452.60685 0 0 0 59.40625,514.11914 452.60685,452.60685 0 0 0 83.205078,656.80469 L 187.42383,628.87891 a 329.77546,329.77546 0 0 1 -5.18555,-57.54297 329.77546,329.77546 0 0 1 5.45508,-58.44727 z m 333.601564,78.32617 c 13.13941,49.42311 68.634,73.14454 117.26367,73.14454 48.62967,0 104.12426,-23.72143 117.26367,-73.14454 -50.88869,25.19343 -82.83822,26.53516 -117.26367,26.53516 -34.42545,0 -66.37498,-1.34173 -117.26367,-26.53516 z M 821.875,682.7168 a 329.77546,329.77546 0 0 1 -57.59961,100.74414 l 58.75391,58.75586 a 452.60685,452.60685 0 0 0 96.71093,-133.27735 z m -619.82227,0.0273 -97.90625,26.23438 a 452.60685,452.60685 0 0 0 97.06055,133.02734 l 58.7793,-58.78125 A 329.77546,329.77546 0 0 1 202.05273,682.7441 Z m 522.54102,139.97461 a 329.77546,329.77546 0 0 1 -100.43945,58.1543 l 17.70312,66.06836 a 452.60685,452.60685 0 0 0 137.97461,-68.98438 z m -425.39063,0.22461 v 0.002 l -55.02148,55.02149 a 452.60685,452.60685 0 0 0 137.93359,69.16211 l 17.78516,-66.36914 A 329.77546,329.77546 0 0 1 299.20312,822.94336 Z m 154.56446,72.42578 -17.1875,64.15234 a 452.60685,452.60685 0 0 0 75.61914,6.83008 452.60685,452.60685 0 0 0 75.35742,-6.41797 l -17.25391,-64.39648 a 329.77546,329.77546 0 0 1 -58.15429,5.30273 329.77546,329.77546 0 0 1 -58.38086,-5.4707 z"
             style="display:inline;opacity:1;fill:#ffffff;fill-opacity:1;stroke:none;stroke-width:0;stroke-linecap:round;stroke-linejoin:round;stroke-miterlimit:4;stroke-dasharray:none;stroke-opacity:1;paint-order:normal" />
        </g>
      </g>
    </g>
    <g
       style="display:inline"
       id="g2825">
      <text
         transform="scale(0.870118,1.1492694)"
         id="text2819"
         y="167.33533"
         x="364.06436"
         style="font-style:normal;font-weight:normal;font-size:204.69473267px;line-height:1.25;font-family:sans-serif;letter-spacing:0px;word-spacing:0px;display:inline;fill:#ffffff;fill-opacity:1;stroke:none;stroke-width:5.11660099"
         xml:space="preserve"><tspan
           style="font-style:normal;font-variant:normal;font-weight:normal;font-stretch:normal;font-family:'Titan One';-inkscape-font-specification:'Titan One';fill:#ffffff;fill-opacity:1;stroke-width:5.11660099"
           y="167.33533"
           x="364.06436"
           id="tspan2817">LAXBEAM</tspan></text>
      <text
         id="text2823"
         y="242.22926"
         x="322.85684"
         style="font-style:normal;font-weight:normal;font-size:37.46841812px;line-height:1.25;font-family:sans-serif;letter-spacing:0px;word-spacing:0px;fill:#ffffff;fill-opacity:1;stroke:none;stroke-width:0.93671054"
         xml:space="preserve"><tspan
           style="font-style:normal;font-variant:normal;font-weight:normal;font-stretch:normal;font-family:'Titan One';-inkscape-font-specification:'Titan One';fill:#ffffff;fill-opacity:1;stroke-width:0.93671054"
           y="242.22926"
           x="322.85684"
           id="tspan2821">Games that let you cut yourself some slack</tspan></text>
    </g>
    <g
       style="display:inline"
       id="g2836"
       transform="translate(9.9999999e-6,0.03735)">
      <text
         xml:space="preserve"
         style="font-style:normal;font-weight:normal;font-size:204.69473267px;line-height:1.25;font-family:sans-serif;letter-spacing:0px;word-spacing:0px;fill:#ffffff;fill-opacity:1;stroke:none;stroke-width:5.11660099"
         x="364.06436"
         y="191.54584"
         id="text2834"
         transform="scale(0.870118,1.1492694)"><tspan
           id="tspan2832"
           x="364.06436"
           y="191.54584"
           style="font-style:normal;font-variant:normal;font-weight:normal;font-stretch:normal;font-family:'Titan One';-inkscape-font-specification:'Titan One';fill:#ffffff;fill-opacity:1;stroke-width:5.11660099">LAXBEAM</tspan></text>
    </g>
  </g>
  <g
     transform="translate(-270.96756,598.45973)"
     style="display:inline"
     id="g2722">
    <g
       id="g2674"
       style="display:none"
       transform="translate(0,0.0373356)">
      <rect
         style="opacity:1;fill:#ff0000;fill-opacity:0.59534882;stroke:none;stroke-width:30.6908226;stroke-linecap:round;stroke-linejoin:miter;stroke-miterlimit:4;stroke-dasharray:none;stroke-opacity:1;paint-order:normal"
         id="rect2662"
         width="970.87115"
         height="866.53021"
         x="270.96756"
         y="-595.58478" />
      <rect
         style="opacity:1;fill:#ff0000;fill-opacity:0.59534882;stroke:none;stroke-width:13.32951641;stroke-linecap:round;stroke-linejoin:miter;stroke-miterlimit:4;stroke-dasharray:none;stroke-opacity:1;paint-order:normal"
         id="rect2664"
         width="66.410423"
         height="52.916668"
         x="322.79169"
         y="-0.037335597" />
      <rect
         y="217.84711"
         x="322.79169"
         height="52.916668"
         width="52.916668"
         id="rect2666"
         style="opacity:1;fill:#ff0000;fill-opacity:0.59534882;stroke:none;stroke-width:11.89850807;stroke-linecap:round;stroke-linejoin:miter;stroke-miterlimit:4;stroke-dasharray:none;stroke-opacity:1;paint-order:normal" />
      <rect
         style="opacity:1;fill:#ff0000;fill-opacity:0.59534882;stroke:none;stroke-width:11.89850807;stroke-linecap:round;stroke-linejoin:miter;stroke-miterlimit:4;stroke-dasharray:none;stroke-opacity:1;paint-order:normal"
         id="rect2668"
         width="52.916668"
         height="52.916668"
         x="706.47241"
         y="-30.353323" />
      <rect
         y="110.83238"
         x="993.2182"
         height="52.916668"
         width="52.916668"
         id="rect2670"
         style="opacity:1;fill:#ff0000;fill-opacity:0.59534882;stroke:none;stroke-width:11.89850807;stroke-linecap:round;stroke-linejoin:miter;stroke-miterlimit:4;stroke-dasharray:none;stroke-opacity:1;paint-order:normal" />
      <rect
         style="opacity:1;fill:#ff0000;fill-opacity:0.59534882;stroke:none;stroke-width:11.89850807;stroke-linecap:round;stroke-linejoin:miter;stroke-miterlimit:4;stroke-dasharray:none;stroke-opacity:1;paint-order:normal"
         id="rect2672"
         width="52.916668"
         height="52.916668"
         x="1188.9233"
         y="110.83238" />
      <rect
         y="-595.50342"
         x="706.47241"
         height="52.916668"
         width="52.916668"
         id="rect2800"
         style="opacity:1;fill:#ff0000;fill-opacity:0.59534882;stroke:none;stroke-width:11.89850807;stroke-linecap:round;stroke-linejoin:miter;stroke-miterlimit:4;stroke-dasharray:none;stroke-opacity:1;paint-order:normal" />
    </g>
    <g
       id="g2704"
       transform="translate(1.1351013e-5,0.03734695)">
      <g
         transform="matrix(1.8907197,0,0,1.8907197,500.27342,-542.60494)"
         id="g2782">
        <g
           transform="translate(-135.46666,1.5709961e-5)"
           id="g2678"
           style="display:inline">
          <path
             transform="translate(179.87021,89.831513)"
             style="display:inline;opacity:1;fill:#ffb300;fill-opacity:1;stroke:none;stroke-width:1.00277007;stroke-linecap:round;stroke-linejoin:round;stroke-miterlimit:4;stroke-dasharray:none;stroke-opacity:1;paint-order:normal"
             id="path2676"
             d="M 226.5153,45.635132 A 135.45219,135.45219 0 0 1 91.119259,181.08731 135.45219,135.45219 0 0 1 -44.389037,45.747429 135.45219,135.45219 0 0 1 90.894665,-89.816958 135.45219,135.45219 0 0 1 226.51512,45.410538" />
        </g>
        <g
           id="g2698"
           style="display:inline;opacity:1">
          <g
             id="g2682"
             transform="translate(211.28716,215.83626)"
             style="display:none">
            <rect
               style="display:inline;opacity:1;fill:#ffbe00;fill-opacity:1;stroke:none;stroke-width:5.5051856;stroke-linecap:round;stroke-linejoin:round;stroke-miterlimit:4;stroke-dasharray:none;stroke-opacity:1;paint-order:normal"
               id="rect2680"
               width="270.93332"
               height="270.93332"
               x="-44.403549"
               y="-89.831528" />
          </g>
          <g
             id="g2686"
             style="display:none"
             transform="translate(166.88361,126.00473)">
            <path
               style="fill:#ffa300;fill-opacity:1;stroke:none;stroke-width:0.99999994px;stroke-linecap:butt;stroke-linejoin:miter;stroke-opacity:1"
               d="M 512,0 V 0.0859375 1023.9355 l 0.004,0.064 H 1024 V 0 Z"
               transform="scale(0.26458333)"
               id="path2684" />
          </g>
          <g
             id="g2690"
             transform="translate(2.3862151e-4,9.9045892e-5)"
             style="fill:#f39600;fill-opacity:1">
            <path
               style="display:inline;opacity:1;fill:#f39600;fill-opacity:1;stroke:none;stroke-width:3.7899971;stroke-linecap:round;stroke-linejoin:round;stroke-miterlimit:4;stroke-dasharray:none;stroke-opacity:1;paint-order:normal"
               d="M 512,0.0859375 V 1023.9355 a 511.9453,511.9453 0 0 0 0.21289,0.01 A 511.9453,511.9453 0 0 0 1023.9453,512 v -0.84961 A 511.9453,511.9453 0 0 0 512,0.0859375 Z"
               id="path2688"
               transform="scale(0.26458333)" />
          </g>
          <g
             id="g2694"
             transform="translate(31.41695,126.00475)"
             style="display:none">
            <path
               style="display:inline;opacity:1;fill:#000000;fill-opacity:1;stroke:none;stroke-width:0;stroke-linecap:round;stroke-linejoin:round;stroke-miterlimit:4;stroke-dasharray:none;stroke-opacity:1;paint-order:normal"
               d="M 400.4375,75.507812 A 452.60684,452.60684 0 0 0 183.58008,203.12109 l 16,16 A 452.60683,452.60683 0 0 1 400.4375,96.460938 Z m 223.14844,0.181641 V 261.17188 a 329.77546,329.77546 0 0 1 16,6.625 V 91.689453 A 452.60683,452.60683 0 0 1 840.25977,203.30664 l 0.37695,-0.37695 A 452.60684,452.60684 0 0 0 623.58594,75.689453 Z M 147.63477,246.12109 A 452.60684,452.60684 0 0 0 68.607422,423.19531 l 18.46875,4.94922 A 452.60683,452.60683 0 0 1 163.63477,262.12109 Z m 728.73632,0.0195 -112.53125,112.5254 a 329.77546,329.77546 0 0 1 57.99024,100.32226 l 8.6289,-2.3125 A 329.77545,329.77545 0 0 0 779.83984,374.66602 L 889.25,265.26172 a 452.60682,452.60682 0 0 0 -12.87891,-19.1211 z M 437.98438,438.2793 c -89.4532,1.9166 -151.08292,29.5208 -206.4961,93.84375 2.11012,-0.74666 4.22234,-1.47816 6.33594,-2.20117 0.8393,-0.28726 1.67974,-0.568 2.51953,-0.85157 1.21824,-0.41106 2.43705,-0.81949 3.65625,-1.22265 1.10772,-0.36664 2.21578,-0.7297 3.32422,-1.08985 0.89039,-0.28899 1.78107,-0.57461 2.67187,-0.85937 1.32339,-0.42353 2.6465,-0.84559 3.97071,-1.25977 0.40362,-0.12609 0.80724,-0.24978 1.21093,-0.375 5.37597,-1.66959 10.75704,-3.26082 16.14063,-4.77344 1.90164,-0.53429 3.80319,-1.05791 5.70508,-1.57226 46.69849,-41.63548 99.81504,-60.893 170.48633,-63.43945 z m 148.03124,0 -40.14453,68.26953 c 2.10006,-0.44638 4.21449,-0.86269 6.33594,-1.26563 0.44399,-0.0841 0.88908,-0.16582 1.33399,-0.24804 2.0554,-0.38085 4.1188,-0.74526 6.19336,-1.08594 0.0235,-0.004 0.0468,-0.008 0.0703,-0.0117 4.68173,-0.76774 9.41203,-1.42971 14.18554,-1.99609 v -0.002 l 28.02539,-47.66015 c 76.1023,1.63054 132.06243,21.87142 181.19336,67.47851 -1.58726,-1.70329 -3.18165,-3.37362 -4.78125,-5.01953 -0.0963,-0.0991 -0.19269,-0.19993 -0.28906,-0.29883 -1.52688,-1.56705 -3.06059,-3.10385 -4.59961,-4.61914 -0.17623,-0.1735 -0.35095,-0.35061 -0.52734,-0.52343 -1.48214,-1.45224 -2.97061,-2.8765 -4.46484,-4.28126 -0.24356,-0.22895 -0.48658,-0.4598 -0.73047,-0.6875 -1.42029,-1.3261 -2.84734,-2.62643 -4.2793,-3.91015 -0.34692,-0.31098 -0.69339,-0.62314 -1.04102,-0.93164 -1.36383,-1.21043 -2.73428,-2.39977 -4.10937,-3.57227 -0.39481,-0.33661 -0.78978,-0.67236 -1.18555,-1.00586 -1.39857,-1.17864 -2.80395,-2.33855 -4.21484,-3.47851 -0.33232,-0.26847 -0.66502,-0.53445 -0.99805,-0.80078 -22.65902,-18.12399 -46.95282,-31.31801 -74.07812,-40.16993 -2.10377,-0.68653 -4.22493,-1.34578 -6.36328,-1.98046 -1.57543,-0.46761 -3.1709,-0.90794 -4.76563,-1.34766 -0.92347,-0.25452 -1.84729,-0.50868 -2.77734,-0.75391 -1.28136,-0.33802 -2.57118,-0.66388 -3.86524,-0.98437 -1.01142,-0.25038 -2.02562,-0.4966 -3.04492,-0.73633 -1.20176,-0.28278 -2.41016,-0.55811 -3.62305,-0.82617 -1.10993,-0.24519 -2.22436,-0.48386 -3.34375,-0.7168 -1.20562,-0.25101 -2.41606,-0.49554 -3.63281,-0.73242 -1.13898,-0.22163 -2.28472,-0.43521 -3.43359,-0.64453 -1.2115,-0.22085 -2.42578,-0.43924 -3.64844,-0.64649 -1.1578,-0.19614 -2.32424,-0.38238 -3.49219,-0.5664 -1.24777,-0.19671 -2.49634,-0.39128 -3.75586,-0.57422 -1.21742,-0.17674 -2.44527,-0.33994 -3.67383,-0.50391 -1.17877,-0.1574 -2.35576,-0.31717 -3.54492,-0.46289 -1.39848,-0.17127 -2.81156,-0.32721 -4.22461,-0.48242 -1.08308,-0.11903 -2.16215,-0.24191 -3.2539,-0.35156 -1.40355,-0.14089 -2.82413,-0.26515 -4.24219,-0.39063 -1.15847,-0.10256 -2.31023,-0.21234 -3.47852,-0.30469 -1.35046,-0.10668 -2.72024,-0.19398 -4.08398,-0.2871 -1.24723,-0.0852 -2.48566,-0.17804 -3.74414,-0.25196 -1.77286,-0.10409 -3.56779,-0.18569 -5.36328,-0.26758 -0.79763,-0.0364 -1.58457,-0.0832 -2.38672,-0.11523 -2.6924,-0.10746 -5.4082,-0.19316 -8.15235,-0.25195 z m 377.15235,40.62109 -126.64844,33.9375 a 329.77546,329.77546 0 0 1 5.26758,57.67773 v 0.54688 a 329.77546,329.77546 0 0 1 -5.40039,57.75781 l 17.62695,4.72266 a 329.77545,329.77545 0 0 0 3.77344,-46.48047 v -0.54688 a 329.77545,329.77545 0 0 0 -5.26758,-57.67773 l 111.50195,-29.87891 a 452.60682,452.60682 0 0 0 -0.85351,-20.05859 z m -902.033204,0.0762 a 452.60684,452.60684 0 0 0 -1.728516,35.14258 452.60684,452.60684 0 0 0 23.798828,142.68555 l 10.50586,-2.81446 A 452.60683,452.60683 0 0 1 75.40625,530.11914 452.60683,452.60683 0 0 1 77.134766,494.97656 l 108.933594,29.18946 a 329.77546,329.77546 0 0 1 1.625,-11.27735 z M 628.54297,499.625 c -4.60761,5.49992 -7.38952,12.58269 -7.40235,20.31836 v 0.0527 c 0,3.02626 0.43166,5.9502 1.22266,8.72266 l 0.008,-0.004 c 2.42285,8.48547 8.27766,15.52201 15.97852,19.49805 0.51339,0.26507 1.03512,0.51652 1.56445,0.75391 -1.77634,-3.96118 -2.77344,-8.34853 -2.77344,-12.97071 v -0.0527 c 0.0128,-7.73567 2.79473,-14.81843 7.40235,-20.31836 z m -284.90039,4.4707 c -2.71676,4.68385 -4.2769,10.12122 -4.27149,15.92578 9.4e-4,1.12775 0.0621,2.24063 0.17774,3.3379 8.3e-4,0.008 0.003,0.0155 0.004,0.0234 0.0679,0.64007 0.16022,1.27232 0.26563,1.90039 0.0266,0.15873 0.055,0.31669 0.084,0.47461 0.0954,0.51946 0.20389,1.03468 0.32422,1.54492 0.0297,0.12613 0.0567,0.25337 0.0879,0.37891 0.15808,0.63509 0.33164,1.26354 0.52735,1.88281 0.0124,0.0394 0.0265,0.0779 0.0391,0.11719 0.18385,0.5739 0.38643,1.14009 0.60156,1.69922 0.0506,0.13164 0.10394,0.26178 0.15625,0.39258 0.20353,0.5085 0.41974,1.01076 0.64844,1.50586 0.0392,0.0848 0.0754,0.17143 0.11523,0.25586 0.28013,0.59252 0.57556,1.17636 0.89063,1.74804 0.0168,0.0305 0.0358,0.0595 0.0527,0.0899 0.29292,0.52737 0.60226,1.04436 0.92383,1.55273 0.0627,0.0993 0.12565,0.19836 0.18945,0.29688 0.32518,0.50166 0.66146,0.99496 1.01368,1.47656 0.0204,0.0279 0.0401,0.0562 0.0605,0.084 0.80253,1.08989 1.67315,2.12619 2.60547,3.10352 0.005,0.005 0.0105,0.0103 0.0156,0.0156 1.40521,1.47102 2.94949,2.80812 4.61328,3.98828 0.0118,0.008 0.0233,0.017 0.0351,0.0254 1.66881,1.18031 3.4568,2.20357 5.3418,3.04882 -1.77247,-3.95307 -2.76946,-8.33069 -2.77344,-12.94336 -0.005,-5.80456 1.55476,-11.24192 4.27149,-15.92578 z m 69.04101,57.72461 c 0.35844,1.34825 0.74845,2.6951 1.16407,4.03907 0.14465,0.46776 0.30946,0.93335 0.46093,1.40039 0.28596,0.88161 0.56888,1.76413 0.87891,2.64257 0.19422,0.55034 0.40776,1.09763 0.61133,1.64649 0.29066,0.78363 0.57916,1.56749 0.88867,2.34765 0.2239,0.56445 0.46556,1.12511 0.69922,1.6875 0.32503,0.78221 0.64849,1.56403 0.99219,2.3418 0.23942,0.54188 0.49185,1.07964 0.74023,1.61914 0.35215,0.76479 0.70622,1.52949 1.07617,2.28906 0.27328,0.56116 0.55696,1.11967 0.83985,1.67774 0.38358,0.75658 0.77084,1.51127 1.17187,2.26172 0.28151,0.52688 0.57131,1.05058 0.86133,1.57422 0.4246,0.76649 0.85621,1.52999 1.29883,2.28906 0.29496,0.50594 0.59557,1.00928 0.89843,1.51172 0.46349,0.76874 0.9362,1.53293 1.41797,2.29297 0.31603,0.49864 0.63519,0.99555 0.95899,1.49023 0.47662,0.72802 0.96378,1.45094 1.45703,2.16992 0.34228,0.49899 0.68497,0.99778 1.03516,1.49219 0.53325,0.75275 1.0795,1.49666 1.63085,2.23828 0.32967,0.4435 0.65613,0.8888 0.99219,1.32813 0.56901,0.74376 1.15315,1.47767 1.74024,2.20898 0.35201,0.43854 0.70211,0.87864 1.06054,1.3125 0.6188,0.74894 1.25298,1.48626 1.89063,2.2207 0.33282,0.38338 0.66016,0.77112 0.99805,1.15039 0.68432,0.76808 1.38697,1.52089 2.09179,2.27149 0.32295,0.34394 0.63765,0.69501 0.96485,1.03516 0.74567,0.77514 1.5119,1.53046 2.27929,2.28515 0.30434,0.29931 0.6005,0.60636 0.90821,0.90235 1.06937,1.0286 2.15633,2.03859 3.26562,3.02539 1.1489,1.02203 2.31932,2.02174 3.50977,2.99609 -10.78616,-13.08864 -18.68087,-28.31738 -22.78321,-43.74805 32.08967,14.13842 63.52425,22.32617 98.60938,22.32617 25.39277,0 49.61078,-4.30756 73.2207,-12.0371 1.15511,-2.05019 2.24214,-4.1274 3.26563,-6.22461 0.0303,-0.0622 0.0635,-0.12335 0.0937,-0.18555 0.003,-0.007 0.007,-0.013 0.01,-0.0195 0.36388,-0.74933 0.70809,-1.50542 1.05469,-2.25977 0.20136,-0.43875 0.40612,-0.87608 0.60156,-1.3164 0.29281,-0.65884 0.57408,-1.32035 0.85352,-1.98243 0.23777,-0.56414 0.47321,-1.12903 0.70117,-1.69531 0.24259,-0.60175 0.47759,-1.20467 0.70898,-1.80859 0.23968,-0.62645 0.47171,-1.2543 0.69922,-1.88281 0.20024,-0.55241 0.40107,-1.10439 0.5918,-1.65821 0.27265,-0.79268 0.53018,-1.58772 0.7832,-2.38281 0.12778,-0.40114 0.26206,-0.80147 0.38477,-1.20313 0.37302,-1.22192 0.72892,-2.44457 1.05469,-3.66992 -32.0897,14.13842 -64.93831,22.32617 -100.02344,22.32617 -35.08513,0 -66.51968,-8.18775 -98.60938,-22.32617 z M 821.875,682.7168 a 329.77546,329.77546 0 0 1 -57.59961,100.74414 l 16,16 A 329.77545,329.77545 0 0 0 837.875,698.7168 l 76.53906,20.50781 a 452.60682,452.60682 0 0 0 5.32617,-10.28516 z m -619.82227,0.0273 -97.90625,26.23438 a 452.60684,452.60684 0 0 0 97.06055,133.02734 l 0.0801,-0.0801 a 452.60683,452.60683 0 0 1 -81.14065,-116.9472 l 89.2461,-23.91407 a 329.77546,329.77546 0 0 1 -7.33985,-18.32031 z m 522.54102,139.97461 a 329.77546,329.77546 0 0 1 -100.43945,58.1543 l 17.70312,66.06836 a 452.60684,452.60684 0 0 0 10.69141,-3.81055 L 640.1543,896.87305 a 329.77545,329.77545 0 0 0 100.43945,-58.1543 z m -425.39063,0.22461 v 0.002 l -55.02148,55.02149 a 452.60682,452.60682 0 0 0 19.23242,12.76758 l 51.78906,-51.78907 v -0.002 a 329.77545,329.77545 0 0 0 82.44532,50.22266 l 2.25195,-8.40625 A 329.77546,329.77546 0 0 1 299.20312,822.94336 Z m 154.56446,72.42578 -17.1875,64.15234 a 452.60682,452.60682 0 0 0 19.63086,2.44727 l 13.55664,-50.59961 a 329.77545,329.77545 0 0 0 58.38086,5.4707 329.77545,329.77545 0 0 0 46.83594,-3.82812 l -4.68165,-17.47461 a 329.77546,329.77546 0 0 1 -58.15429,5.30273 329.77546,329.77546 0 0 1 -58.38086,-5.4707 z"
               transform="matrix(0.26458333,0,0,0.26458333,135.46666,-1.5709961e-5)"
               id="path2692" />
          </g>
          <g
             id="g2696"
             style="display:none"
             transform="translate(166.88361,126.00473)" />
        </g>
        <g
           style="display:inline"
           transform="translate(-135.46666,1.5709961e-5)"
           id="g2702">
          <path
             style="display:inline;opacity:1;fill:#ffffff;fill-opacity:1;stroke:none;stroke-width:0;stroke-linecap:round;stroke-linejoin:round;stroke-miterlimit:4;stroke-dasharray:none;stroke-opacity:1;paint-order:normal"
             d="M 400.4375,75.507812 A 452.60685,452.60685 0 0 0 183.58008,203.12109 L 299.6582,319.19922 a 329.77546,329.77546 0 0 1 100.7793,-58.12695 z m 223.14844,0.181641 V 261.17188 a 329.77546,329.77546 0 0 1 100.99804,57.81054 L 840.63672,202.92969 A 452.60685,452.60685 0 0 0 623.58594,75.689453 Z M 147.63477,246.12109 A 452.60685,452.60685 0 0 0 68.607422,423.19531 l 133.685548,35.82031 a 329.77546,329.77546 0 0 1 57.67187,-100.57031 z m 728.73632,0.0195 -112.53125,112.5254 a 329.77546,329.77546 0 0 1 57.99024,100.32226 L 955.01367,423.30273 A 452.60685,452.60685 0 0 0 876.37109,246.14062 Z M 359.68555,401.14648 c -0.90257,0.002 -1.80693,0.0157 -2.71485,0.041 -58.10683,1.62266 -102.74955,50.62566 -114.5039,100.39648 28.76788,-13.64641 57.1952,-23.1213 87.625,-27.29882 -5.71591,6.58525 -9.17868,15.17789 -9.16992,24.58203 0.0171,20.69397 16.80209,37.453 37.49609,37.44922 20.69401,-0.009 37.46484,-16.78643 37.46484,-37.48047 v -0.0625 c -0.0169,-10.19065 -4.10581,-19.42037 -10.71679,-26.16602 31.53098,2.34308 61.84492,10.24347 91.73437,22.42774 -14.28758,-48.27075 -60.3533,-94.01922 -117.21484,-93.88868 z m 304.6289,0 c -56.86154,-0.13054 -102.92726,45.61793 -117.21484,93.88868 29.88884,-12.18402 60.20214,-20.08448 91.73242,-22.42774 -6.61085,6.74563 -10.69798,15.97549 -10.71484,26.16602 v 0.0625 c 0,20.69404 16.77083,37.47192 37.46484,37.48047 20.694,0.004 37.47897,-16.75525 37.49609,-37.44922 0.009,-9.40414 -3.45401,-17.99678 -9.16992,-24.58203 30.4298,4.17752 58.85712,13.65241 87.625,27.29882 -11.75435,-49.77082 -56.39707,-98.77382 -114.5039,-100.39648 -0.90792,-0.0254 -1.81228,-0.0389 -2.71485,-0.041 z m 298.85352,77.75391 -126.64844,33.9375 a 329.77546,329.77546 0 0 1 5.26758,57.67773 v 0.54688 a 329.77546,329.77546 0 0 1 -5.40039,57.75781 l 104.60547,28.03125 a 452.60685,452.60685 0 0 0 23.62695,-143.10742 v -0.75 a 452.60685,452.60685 0 0 0 -1.45117,-34.09375 z m -902.033204,0.0762 A 452.60685,452.60685 0 0 0 59.40625,514.11914 452.60685,452.60685 0 0 0 83.205078,656.80469 L 187.42383,628.87891 a 329.77546,329.77546 0 0 1 -5.18555,-57.54297 329.77546,329.77546 0 0 1 5.45508,-58.44727 z m 333.601564,78.32617 c 13.13941,49.42311 68.634,73.14454 117.26367,73.14454 48.62967,0 104.12426,-23.72143 117.26367,-73.14454 -50.88869,25.19343 -82.83822,26.53516 -117.26367,26.53516 -34.42545,0 -66.37498,-1.34173 -117.26367,-26.53516 z M 821.875,682.7168 a 329.77546,329.77546 0 0 1 -57.59961,100.74414 l 58.75391,58.75586 a 452.60685,452.60685 0 0 0 96.71093,-133.27735 z m -619.82227,0.0273 -97.90625,26.23438 a 452.60685,452.60685 0 0 0 97.06055,133.02734 l 58.7793,-58.78125 A 329.77546,329.77546 0 0 1 202.05273,682.7441 Z m 522.54102,139.97461 a 329.77546,329.77546 0 0 1 -100.43945,58.1543 l 17.70312,66.06836 a 452.60685,452.60685 0 0 0 137.97461,-68.98438 z m -425.39063,0.22461 v 0.002 l -55.02148,55.02149 a 452.60685,452.60685 0 0 0 137.93359,69.16211 l 17.78516,-66.36914 A 329.77546,329.77546 0 0 1 299.20312,822.94336 Z m 154.56446,72.42578 -17.1875,64.15234 a 452.60685,452.60685 0 0 0 75.61914,6.83008 452.60685,452.60685 0 0 0 75.35742,-6.41797 l -17.25391,-64.39648 a 329.77546,329.77546 0 0 1 -58.15429,5.30273 329.77546,329.77546 0 0 1 -58.38086,-5.4707 z"
             transform="matrix(0.26458333,0,0,0.26458333,135.46666,-1.5709961e-5)"
             id="path2700" />
        </g>
      </g>
    </g>
    <g
       id="g2720"
       style="display:none">
      <text
         xml:space="preserve"
         style="font-style:normal;font-weight:normal;font-size:204.69473267px;line-height:1.25;font-family:sans-serif;letter-spacing:0px;word-spacing:0px;display:inline;fill:#ffffff;fill-opacity:1;stroke:none;stroke-width:5.11660099"
         x="364.06436"
         y="167.33533"
         id="text2714"
         transform="scale(0.870118,1.1492694)"><tspan
           id="tspan2712"
           x="364.06436"
           y="167.33533"
           style="font-style:normal;font-variant:normal;font-weight:normal;font-stretch:normal;font-family:'Titan One';-inkscape-font-specification:'Titan One';fill:#ffffff;fill-opacity:1;stroke-width:5.11660099">LAXBEAM</tspan></text>
      <text
         xml:space="preserve"
         style="font-style:normal;font-weight:normal;font-size:37.46841812px;line-height:1.25;font-family:sans-serif;letter-spacing:0px;word-spacing:0px;fill:#ffffff;fill-opacity:1;stroke:none;stroke-width:0.93671054"
         x="322.85684"
         y="242.22926"
         id="text2718"><tspan
           id="tspan2716"
           x="322.85684"
           y="242.22926"
           style="font-style:normal;font-variant:normal;font-weight:normal;font-stretch:normal;font-family:'Titan One';-inkscape-font-specification:'Titan One';fill:#ffffff;fill-opacity:1;stroke-width:0.93671054">Games that let you cut yourself some slack</tspan></text>
    </g>
    <g
       transform="translate(9.9999999e-6,0.03735)"
       id="g2710"
       style="display:inline">
      <g
         id="text2851"
         style="font-style:normal;font-weight:normal;font-size:204.69473267px;line-height:1.25;font-family:sans-serif;letter-spacing:0px;word-spacing:0px;display:inline;fill:#ffffff;fill-opacity:1;stroke:none;stroke-width:5.11660099"
         transform="matrix(0.870118,0,0,1.1492694,1.4432493e-6,-0.03735109)"
         aria-label="LAXBEAM">
        <path
           id="path1934"
           style="font-style:normal;font-variant:normal;font-weight:normal;font-stretch:normal;font-family:'Titan One';-inkscape-font-specification:'Titan One';fill:#ffffff;fill-opacity:1;stroke-width:5.11660099"
           d="m 389.44651,167.33533 q -10.23474,0 -13.71455,-1.02348 -3.47981,-1.22816 -3.47981,-3.8892 V 35.10253 q 0,-4.503284 11.8723,-8.801874 11.87229,-4.503284 26.61031,-4.503284 13.10046,0 17.19436,5.526758 1.43286,2.046947 1.43286,4.093895 v 90.679765 q 24.97276,-1.63756 37.66383,-1.63756 4.29859,0 4.29859,13.71455 0,13.50985 -1.84225,23.3352 -1.84225,9.82535 -4.91267,9.82535 z" />
        <path
           id="path1936"
           style="font-style:normal;font-variant:normal;font-weight:normal;font-stretch:normal;font-family:'Titan One';-inkscape-font-specification:'Titan One';fill:#ffffff;fill-opacity:1;stroke-width:5.11660099"
           d="m 540.29054,156.8959 q -0.40939,5.93614 -6.34554,8.18779 -5.73145,2.25164 -20.87886,2.25164 -15.14741,0 -25.38215,-2.66103 -10.03004,-2.86573 -10.03004,-7.16432 0,-4.91267 18.21783,-62.636588 18.21783,-57.92861 20.87886,-66.730483 1.02348,-2.661032 16.37558,-4.298589 15.5568,-1.842253 33.16055,-1.842253 17.80844,0 19.65069,6.140842 38.68731,128.548291 38.68731,130.595241 0,2.04695 -2.45634,4.09389 -5.73145,4.50329 -22.72111,4.50329 -36.23097,0 -37.04975,-8.59718 l -1.43286,-13.30516 h -19.6507 z m 16.37558,-50.35491 -3.07042,-36.84505 h -4.50329 l -3.47981,36.84505 z" />
        <path
           id="path1938"
           style="font-style:normal;font-variant:normal;font-weight:normal;font-stretch:normal;font-family:'Titan One';-inkscape-font-specification:'Titan One';fill:#ffffff;fill-opacity:1;stroke-width:5.11660099"
           d="m 669.51048,167.33533 q -14.94272,0 -27.83849,-2.45634 -12.89576,-2.66103 -12.89576,-7.5737 0,-2.86573 8.39248,-18.62723 8.59718,-15.96618 25.79154,-45.032837 -30.70421,-57.723914 -30.70421,-60.58964 0,-4.503285 12.89576,-7.7784 13.10047,-3.275116 23.74459,-3.275116 10.84882,0 17.60375,3.275116 6.95962,3.275115 7.57371,6.550231 l 7.98309,36.230968 h 1.02347 l 5.73146,-35.821578 q 0.20469,-1.432864 4.91267,-3.8892 4.70798,-2.456337 12.48638,-4.29859 7.98309,-2.046947 18.21783,-2.046947 10.43943,0 17.39905,2.456337 6.95962,2.456337 6.95962,9.211263 0,3.47981 -7.36901,20.264778 -7.36901,16.784968 -22.31172,46.670395 33.16054,53.83472 33.16054,56.70045 0,10.03004 -24.35867,10.03004 -36.23097,0 -38.892,-9.82535 l -7.98309,-28.45257 h -1.22817 l -6.55023,28.45257 q -2.25165,9.82535 -23.74459,9.82535 z" />
        <path
           id="path1940"
           style="font-style:normal;font-variant:normal;font-weight:normal;font-stretch:normal;font-family:'Titan One';-inkscape-font-specification:'Titan One';fill:#ffffff;fill-opacity:1;stroke-width:5.11660099"
           d="m 844.46371,167.33533 h -44.82815 q -10.23473,0 -13.71454,-1.43287 -3.47981,-1.43286 -3.47981,-4.50328 V 29.780467 q 0,-9.825347 59.15678,-9.825347 33.97932,0 46.87509,6.550231 13.10046,6.754926 16.78497,17.194358 2.04694,6.140842 2.04694,14.328631 0,15.966189 -5.52675,23.949284 -5.32207,7.983094 -11.6676,9.006568 9.62065,2.046947 15.96619,9.415958 6.34553,7.36901 6.34553,24.97276 0,20.46947 -12.48638,30.29482 -10.84882,8.59718 -33.16054,10.84882 -9.41596,0.81878 -22.31173,0.81878 z m 0.2047,-89.246906 q 10.43943,0 10.43943,-13.919242 0,-6.959621 -2.86573,-10.234737 -2.66103,-3.47981 -6.14084,-3.47981 h -6.55023 v 27.633789 z m -5.11737,58.747386 h 5.11737 q 10.43943,0 10.43943,-13.91924 0,-6.95962 -2.86573,-10.23474 -2.66103,-3.47981 -6.14084,-3.47981 h -6.55023 z" />
        <path
           id="path1942"
           style="font-style:normal;font-variant:normal;font-weight:normal;font-stretch:normal;font-family:'Titan One';-inkscape-font-specification:'Titan One';fill:#ffffff;fill-opacity:1;stroke-width:5.11660099"
           d="m 1030.5472,167.33533 h -86.79055 q -10.03005,0 -13.50986,-1.43287 -3.47981,-1.43286 -3.47981,-4.50328 V 31.827414 q 0,-5.322063 4.70798,-7.573705 4.91267,-2.251642 17.39905,-2.251642 h 82.28729 q 4.2986,0 4.2986,14.328631 0,14.123937 -1.8423,21.697642 -1.8422,7.36901 -4.9126,7.36901 -13.3052,0 -44.82819,-2.661031 v 13.714547 q 30.29479,-1.228169 39.50609,-1.228169 5.5268,0 5.5268,12.895769 0,12.895764 -2.2517,19.650694 -2.0469,6.55023 -5.7314,6.55023 l -37.04979,-0.81878 v 13.10047 q 35.61689,-2.66104 49.12669,-2.66104 4.2986,0 4.2986,14.32864 0,14.32863 -1.8422,21.69764 -1.8423,7.36901 -4.9127,7.36901 z" />
        <path
           id="path1944"
           style="font-style:normal;font-variant:normal;font-weight:normal;font-stretch:normal;font-family:'Titan One';-inkscape-font-specification:'Titan One';fill:#ffffff;fill-opacity:1;stroke-width:5.11660099"
           d="m 1107.9986,156.8959 q -0.4094,5.93614 -6.3456,8.18779 -5.7314,2.25164 -20.8788,2.25164 -15.1474,0 -25.3822,-2.66103 -10.03,-2.86573 -10.03,-7.16432 0,-4.91267 18.2178,-62.636588 18.2178,-57.92861 20.8789,-66.730483 1.0234,-2.661032 16.3756,-4.298589 15.5568,-1.842253 33.1605,-1.842253 17.8084,0 19.6507,6.140842 38.6873,128.548291 38.6873,130.595241 0,2.04695 -2.4563,4.09389 -5.7315,4.50329 -22.7212,4.50329 -36.2309,0 -37.0497,-8.59718 l -1.4329,-13.30516 h -19.6507 z m 16.3755,-50.35491 -3.0704,-36.84505 h -4.5033 l -3.4798,36.84505 z" />
        <path
           id="path1946"
           style="font-style:normal;font-variant:normal;font-weight:normal;font-stretch:normal;font-family:'Titan One';-inkscape-font-specification:'Titan One';fill:#ffffff;fill-opacity:1;stroke-width:5.11660099"
           d="m 1234.1481,167.33533 q -5.1173,0 -14.9427,0 -9.6206,0 -13.1005,-1.43287 -3.4798,-1.43286 -3.4798,-4.50328 V 32.236804 q 0,-4.707979 12.4864,-7.369011 12.6911,-2.865726 27.0197,-2.865726 14.3287,0 20.4695,3.684505 6.1408,3.684505 7.1643,7.7784 l 13.9193,54.039409 h 1.8422 l 13.1005,-51.583072 q 1.4328,-5.526758 13.3051,-9.620653 12.077,-4.298589 26.4056,-4.298589 14.3287,0 21.0836,2.251642 6.9596,2.251642 6.9596,5.731453 V 161.39918 q 0,2.66103 -11.6676,4.29859 -11.6676,1.63756 -28.4525,1.63756 -16.785,0 -16.785,-5.93615 0,-16.17088 3.4798,-57.51922 h -1.8423 l -10.6441,53.42533 q -0.6141,3.07042 -5.1173,4.50328 -4.2986,1.43286 -13.1005,1.43286 -8.8019,0 -10.8488,-1.22817 -1.8423,-1.22816 -2.4564,-4.70797 l -11.0535,-53.42533 h -1.8422 q 3.6845,42.16711 3.6845,57.51922 0,5.32206 -25.5869,5.93615 z" />
      </g>
    </g>
  </g>
</svg>
