<?xml version="1.0" standalone="no"?>
<!DOCTYPE svg PUBLIC "-//W3C//DTD SVG 20010904//EN"
 "http://www.w3.org/TR/2001/REC-SVG-20010904/DTD/svg10.dtd">
<svg version="1.0" xmlns="http://www.w3.org/2000/svg"
 width="700.000000pt" height="700.000000pt" viewBox="0 0 700.000000 700.000000"
 preserveAspectRatio="xMidYMid meet">
<metadata>
Created by potrace 1.11, written by Peter Selinger 2001-2013
</metadata>
<g transform="translate(0.000000,700.000000) scale(0.100000,-0.100000)"
fill="#000000" stroke="none">
<path d="M2680 6470 c-14 -5 -77 -25 -140 -45 -99 -32 -157 -53 -255 -94 -128
-53 -373 -187 -500 -271 -61 -41 -267 -198 -315 -240 -58 -51 -210 -202 -210
-209 0 -3 177 -183 394 -400 l393 -393 105 79 c57 44 138 99 178 123 143 84
344 180 374 180 9 0 19 8 24 18 6 10 10 280 9 640 0 682 5 633 -57 612z"/>
<path d="M4263 5847 l0 -633 51 -19 c147 -52 438 -212 545 -301 9 -7 34 -27
55 -44 l40 -31 393 393 c216 216 393 397 393 402 0 20 -236 235 -365 332 -89
67 -212 151 -271 185 -236 135 -389 206 -604 281 -76 26 -215 67 -231 68 -3 0
-6 -285 -6 -633z"/>
<path d="M917 5183 c-189 -285 -334 -614 -417 -945 -17 -64 -30 -119 -30 -123
0 -7 42 -23 77 -30 15 -2 67 -16 117 -29 161 -45 430 -117 486 -131 100 -26
142 -37 183 -49 l47 -15 16 37 c9 20 24 58 35 84 66 165 226 429 325 538 l24
26 -379 379 c-209 209 -384 381 -389 383 -6 2 -49 -54 -95 -125z"/>
<path d="M5602 4929 l-381 -382 54 -66 c109 -136 235 -354 313 -541 24 -59 35
-74 49 -72 10 2 125 33 256 69 131 35 246 66 255 68 10 1 42 10 73 19 31 9 65
18 75 21 19 4 144 37 199 53 37 11 37 12 -15 202 -36 134 -95 307 -136 397
-55 124 -111 238 -151 308 -62 109 -192 305 -202 305 -4 0 -179 -172 -389
-381z"/>
<path d="M2350 4250 c-299 -49 -552 -277 -669 -603 -12 -32 -21 -62 -21 -68 0
-5 27 4 60 21 33 16 65 30 72 30 7 0 25 6 39 14 54 28 280 93 359 103 19 2 41
6 48 8 17 6 15 -10 -3 -25 -8 -7 -15 -20 -15 -29 0 -9 -5 -22 -12 -29 -21 -21
-14 -142 12 -191 47 -93 132 -145 237 -144 141 2 247 111 246 255 0 56 -6 76
-31 122 l-31 54 43 -3 c23 -2 56 -6 72 -9 16 -3 47 -8 69 -12 69 -10 256 -61
344 -93 46 -17 85 -31 87 -31 2 0 -3 17 -10 38 -99 280 -350 516 -615 578 -75
18 -214 25 -281 14z"/>
<path d="M4390 4240 c-224 -47 -429 -202 -563 -426 -31 -51 -93 -194 -84 -194
1 0 45 15 97 34 113 41 321 92 405 101 33 3 72 9 87 11 l27 5 -32 -62 c-54
-104 -38 -216 42 -298 77 -79 201 -98 300 -47 81 42 133 127 134 220 1 56 -8
84 -51 169 -2 4 2 5 10 2 7 -2 30 -6 50 -9 110 -16 301 -74 428 -130 l100 -44
-6 27 c-21 95 -116 278 -182 351 -69 76 -138 139 -194 176 -172 115 -371 155
-568 114z"/>
<path d="M419 3712 c-1 -9 -3 -28 -5 -42 -5 -39 -5 -349 1 -405 16 -168 28
-251 51 -364 26 -130 91 -370 103 -383 4 -4 20 -3 36 2 17 5 167 46 335 91
168 44 313 83 323 85 15 5 17 13 11 47 -11 72 -13 89 -20 182 -13 158 -4 374
21 521 5 27 3 44 -4 48 -6 4 -55 18 -108 32 -54 14 -161 42 -238 63 -77 21
-212 57 -300 80 -88 24 -170 47 -182 52 -18 7 -23 5 -24 -9z"/>
<path d="M6445 3690 c-77 -20 -243 -66 -370 -100 -126 -34 -258 -69 -293 -78
l-63 -16 7 -45 c3 -25 8 -57 10 -71 9 -56 16 -182 16 -285 1 -99 -9 -262 -17
-275 -1 -3 -6 -31 -9 -62 l-7 -57 43 -11 c24 -6 126 -34 228 -61 102 -27 210
-56 240 -64 30 -8 86 -24 125 -35 38 -10 73 -16 77 -12 18 18 107 371 122 482
14 109 18 137 22 160 7 43 17 242 17 320 -1 70 -6 251 -7 249 -1 0 -64 -18
-141 -39z"/>
<path d="M2705 3168 c53 -186 254 -364 490 -432 299 -87 645 -38 869 124 63
45 168 164 195 222 54 115 56 112 -60 62 -100 -43 -248 -93 -299 -101 -14 -2
-63 -9 -110 -17 -113 -18 -457 -18 -580 0 -155 22 -341 79 -473 146 l-39 19 7
-23z"/>
<path d="M1049 2245 c-169 -46 -314 -85 -322 -87 -39 -8 175 -366 352 -588
103 -131 279 -320 296 -320 4 0 96 89 205 198 l197 198 -44 54 c-52 65 -146
205 -186 275 -44 78 -132 265 -147 313 -8 27 -19 42 -29 41 -9 0 -154 -38
-322 -84z"/>
<path d="M5596 2278 c-55 -157 -183 -387 -302 -543 -35 -46 -64 -87 -64 -90 0
-11 387 -395 398 -395 14 0 194 194 287 310 42 52 108 142 147 200 74 109 218
363 218 384 0 7 -59 28 -142 50 -79 21 -224 60 -323 87 -99 27 -184 49 -190
49 -6 0 -19 -24 -29 -52z"/>
<path d="M1852 1183 l-183 -185 58 -41 c191 -133 448 -270 668 -354 175 -67
205 -77 216 -66 4 4 22 60 38 123 17 63 42 160 56 214 14 54 22 102 18 106 -4
3 -39 19 -78 35 -178 73 -388 193 -532 306 -35 27 -66 49 -70 48 -5 0 -90 -84
-191 -186z"/>
<path d="M4895 1329 c-141 -112 -360 -240 -530 -310 -44 -18 -84 -36 -88 -39
-8 -7 98 -428 112 -442 16 -17 309 95 496 189 145 72 322 180 443 268 5 4
-368 375 -376 374 -4 0 -29 -18 -57 -40z"/>
<path d="M3092 843 c-15 -52 -42 -153 -48 -179 -2 -12 -15 -60 -29 -108 -26
-91 -30 -115 -17 -117 4 -1 16 -3 27 -4 11 -1 38 -6 60 -9 211 -37 577 -39
815 -5 97 13 110 17 110 34 0 7 -18 80 -41 162 -22 81 -43 157 -46 168 -9 40
-12 50 -13 53 -2 1 -3 5 -4 10 -4 21 -20 32 -38 26 -119 -37 -584 -36 -744 2
-17 4 -22 -2 -32 -33z"/>
</g>
</svg>
